<svg width="146" height="56" fill="none" xmlns="http://www.w3.org/2000/svg"><path fill="#fff" fill-opacity=".01" d="M0 0h146v56H0z"/><g clip-path="url(#clip0_55_186)"><path d="M21.003 28.943a4.665 4.665 0 01-1.342-.218 3.352 3.352 0 01-1.09-.604 2.81 2.81 0 01-.737-.97 2.977 2.977 0 01-.274-1.306v-6.1h-1.033a.57.57 0 01-.393-.119.477.477 0 01-.134-.386v-1.321a.442.442 0 01.134-.373.612.612 0 01.393-.105h1.033v-1.904a.359.359 0 01.112-.289.922.922 0 01.359-.14l.372-.134.45-.147.442-.127c.12-.027.243-.043.366-.049a.394.394 0 01.365.155c.061.127.09.267.084.407v2.257h1.293a.513.513 0 01.359.12.52.52 0 01.126.386v1.23a.576.576 0 01-.126.414.484.484 0 01-.359.127h-1.3v4.602a.064.064 0 010 .035v1.223c-.027.304.055.608.232.857a.962.962 0 00.76.267.373.373 0 01.301.133.519.519 0 01.106.324v1.271a.478.478 0 01-.134.366.493.493 0 01-.365.12zm11.987-.126a.965.965 0 01-.21 0h-1.125a.54.54 0 01-.428-.183.907.907 0 01-.134-.372l-.098-.822A3.101 3.101 0 0129.8 28.5a3.75 3.75 0 01-.934.345 5.155 5.155 0 01-1.195.127c-.653.01-1.3-.122-1.897-.387a3.927 3.927 0 01-1.405-1.047 4.553 4.553 0 01-.843-1.567 6.268 6.268 0 01-.296-1.946v-5.987a.703.703 0 01.155-.492.576.576 0 01.443-.168h1.405a.651.651 0 01.485.133.76.76 0 01.12.478v6.029c-.002.314.045.627.14.927.095.299.247.576.45.815.2.251.454.453.744.59.327.147.682.22 1.04.211.296 0 .59-.048.872-.14a2.61 2.61 0 00.822-.443c.25-.205.459-.459.611-.745a2.17 2.17 0 00.239-1.047v-6.19c.014-.106.04-.21.077-.31a.705.705 0 01.162-.224.457.457 0 01.288-.084h1.51a.578.578 0 01.436.147.526.526 0 01.14.4v10.393a.506.506 0 01-.379.499zm9.008-10.835a.456.456 0 00-.302-.429 6.34 6.34 0 00-.702-.19 4.793 4.793 0 00-.815-.056 2.93 2.93 0 00-.991.127 2.848 2.848 0 00-1.265.808c-.164.17-.314.354-.45.548 0-.127-.02-.267-.063-.422a2.557 2.557 0 00-.077-.45.87.87 0 00-.183-.337.42.42 0 00-.344-.133h-1.131a.596.596 0 00-.38.133.478.478 0 00-.183.4v10.414a.493.493 0 00.563.548h1.49a.49.49 0 00.561-.548v-6.043c-.011-.45.075-.899.253-1.314a2.249 2.249 0 011.834-1.356 2.853 2.853 0 011.476.211c.246.077.653.197.703-.295v-1.616h.007zm5.861 10.961a4.626 4.626 0 01-1.342-.218 3.28 3.28 0 01-1.09-.604 2.662 2.662 0 01-.737-.97 2.979 2.979 0 01-.274-1.306v-6.1h-1.012a.583.583 0 01-.394-.119.499.499 0 01-.126-.386v-1.321a.464.464 0 01.126-.373.625.625 0 01.394-.077h1.04v-1.904a.366.366 0 01.12-.288.872.872 0 01.322-.17l.373-.133.443-.147.45-.127a2.1 2.1 0 01.358-.049.386.386 0 01.365.155.78.78 0 01.091.407v2.27h1.307a.513.513 0 01.359.12.519.519 0 01.126.386v1.215a.576.576 0 01-.126.415.484.484 0 01-.359.127h-1.32v4.574a.062.062 0 010 .035v1.223c-.027.305.058.61.238.857a.962.962 0 00.76.267.352.352 0 01.294.133c.076.09.116.206.113.324v1.3a.463.463 0 01-.5.498v-.014zm2.354-14.341a.597.597 0 01.126-.386.478.478 0 01.394-.155h1.58a.471.471 0 01.338.155.52.52 0 01.154.386v13.793a.528.528 0 01-.147.408.57.57 0 01-.4.14h-1.511a.52.52 0 01-.408-.14.576.576 0 01-.126-.408V14.602zm13.681 13.077c-.522.442-1.11.8-1.743 1.06a5.367 5.367 0 01-2.108.394 5.852 5.852 0 01-2.312-.464 6.044 6.044 0 01-1.911-1.264 6.115 6.115 0 01-1.307-1.884 5.623 5.623 0 01-.485-2.325 5.973 5.973 0 01.766-2.959c.24-.438.538-.842.885-1.201a5.727 5.727 0 012.607-1.539 5.875 5.875 0 012.951-.042c.438.11.862.267 1.265.47.4.208.777.458 1.124.745.349.292.66.625.928.991.355.497.623 1.051.794 1.637a6.99 6.99 0 01.253 1.94 2.66 2.66 0 010 .442.506.506 0 01-.112.282.526.526 0 01-.267.161 2.245 2.245 0 01-.506.05h-8.039c.07.41.22.8.443 1.152.213.323.476.61.78.85.589.451 1.31.698 2.052.703.261 0 .523-.026.78-.078a3.915 3.915 0 001.306-.534c.172-.105.332-.227.478-.365.063-.059.13-.11.204-.155a.386.386 0 01.21-.063.44.44 0 01.184.056.61.61 0 01.203.183l.415.492c.112.133.21.246.28.337.06.074.114.151.163.232a.54.54 0 01.049.204.704.704 0 01-.33.492zm-4.013-8.151a2.81 2.81 0 00-1.019.197 3.372 3.372 0 00-.927.526 3.548 3.548 0 00-.703.787c-.21.296-.371.623-.478.97h6.395a3.332 3.332 0 00-1.146-1.792 3.072 3.072 0 00-.948-.506 3.557 3.557 0 00-1.174-.182zm7.413-1.947c.181-.081.378-.12.577-.112h.906a.463.463 0 01.394.169 1 1 0 01.168.386l.063.864a5.32 5.32 0 01.478-.59c.193-.196.41-.366.647-.506.276-.153.571-.269.878-.344a4.49 4.49 0 011.166-.134c.388-.002.774.038 1.153.12.64.148 1.224.48 1.68.956.23.243.433.511.603.8.152-.29.352-.554.59-.78.255-.24.54-.443.85-.604a4.862 4.862 0 011.09-.386 5.62 5.62 0 011.202-.134 4.385 4.385 0 011.876.387c.525.248.986.614 1.349 1.068.373.468.65 1.005.815 1.58.192.627.287 1.278.281 1.933v6.029a.703.703 0 01-.155.492.576.576 0 01-.442.169H82.05a.626.626 0 01-.477-.141.703.703 0 01-.127-.478v-6.064a3.186 3.186 0 00-.098-.927 2.305 2.305 0 00-.422-.801 2.109 2.109 0 00-.703-.556 2.227 2.227 0 00-1.025-.217 2.46 2.46 0 00-.921.175c-.266.12-.505.292-.703.506-.21.231-.372.5-.477.794a2.81 2.81 0 00-.176 1.033v6.022c0 .436-.197.654-.59.654h-1.406a.626.626 0 01-.477-.141.738.738 0 01-.12-.478v-6.057c0-.309-.042-.616-.126-.913a2.538 2.538 0 00-.408-.801 2.11 2.11 0 00-.703-.57 2.473 2.473 0 00-1.862-.056 2.51 2.51 0 00-.751.457 2.318 2.318 0 00-.556.703c-.153.305-.23.642-.224.983v6.324a.527.527 0 01-.541.534H67.61a.597.597 0 01-.436-.14.577.577 0 01-.14-.408V18.003a.429.429 0 01.26-.422zm18.375.436a.583.583 0 01.14-.393.477.477 0 01.394-.155h1.504c.143.005.28.06.386.155a.775.775 0 01.134.175.479.479 0 01.056.218v10.378c0 .366-.19.548-.57.548H86.21a.485.485 0 01-.541-.548V18.017zm4.581-.288a.492.492 0 01.211-.183.365.365 0 01.218-.077h1.209a.45.45 0 01.386.169c.081.114.14.243.176.38l.098.962a4.4 4.4 0 01.506-.612 3.626 3.626 0 011.644-.906 4.918 4.918 0 013.099.239c.539.243 1.019.6 1.405 1.047.389.463.682.998.865 1.574a6.25 6.25 0 01.288 1.94v6.028a.701.701 0 01-.148.485.571.571 0 01-.442.169h-1.406a.654.654 0 01-.485-.141.737.737 0 01-.12-.478V22.31a2.81 2.81 0 00-.16-.934 2.57 2.57 0 00-.479-.815 2.227 2.227 0 00-.772-.584 2.507 2.507 0 00-1.926-.049 2.89 2.89 0 00-.815.478 2.56 2.56 0 00-.618.745c-.165.302-.252.64-.253.984v6.197c-.013.106-.039.21-.078.31a.583.583 0 01-.168.217.443.443 0 01-.281.084h-1.49a.6.6 0 01-.436-.14.54.54 0 01-.14-.408V18.003a.485.485 0 01.112-.274zm15.635 11.215a4.598 4.598 0 01-1.343-.218 3.31 3.31 0 01-1.096-.605c-.301-.269-.54-.6-.702-.97a3.064 3.064 0 01-.267-1.306v-6.1h-1.04a.585.585 0 01-.394-.119.503.503 0 01-.133-.386v-1.321a.473.473 0 01.133-.373.626.626 0 01.394-.105h.99v-1.876a.378.378 0 01.027-.156.374.374 0 01.086-.132.904.904 0 01.351-.183l.366-.133.449-.148.45-.127c.118-.027.238-.043.358-.049a.385.385 0 01.366.155c.061.127.09.267.084.407v2.271h1.3a.518.518 0 01.365.12.526.526 0 01.127.386v1.23a.576.576 0 01-.127.414.495.495 0 01-.365.127h-1.3v4.636a.07.07 0 000 .035v1.188a1.24 1.24 0 00.239.857.964.964 0 00.759.267.354.354 0 01.295.134.51.51 0 01.105.323v1.272a.509.509 0 01-.126.365.522.522 0 01-.351.12zM86.969 13c-2.059 0-2.066 3.204 0 3.204s2.108-3.204 0-3.204z" fill="#009F69"/><path d="M119.017 20.427v8.481a5.524 5.524 0 005.523-5.48v-3h-5.523z" fill="#00D679"/><path d="M130 14.967a5.46 5.46 0 00-5.46 5.46H130v-5.46z" fill="#009F69"/><path d="M124.54 14.103v6.324h-12.648a6.325 6.325 0 016.324-6.324h6.324zM85.323 33.335h-3.406v7.87h1.821v-2.17h1.585c2.103 0 3.418-1.09 3.418-2.844 0-1.766-1.315-2.856-3.418-2.856zm-.1 4.216h-1.485v-2.732h1.484c1.113 0 1.675.506 1.675 1.371 0 .855-.562 1.36-1.675 1.36zm11.789 3.654l-1.765-2.53c1.023-.438 1.618-1.304 1.618-2.484 0-1.766-1.315-2.856-3.417-2.856H90.04v7.87h1.822v-2.193h1.675l1.517 2.193h1.957zm-1.99-5.014c0 .854-.562 1.371-1.675 1.371h-1.484V34.82h1.484c1.113 0 1.675.506 1.675 1.371zm7.098 5.149c2.473 0 4.306-1.72 4.306-4.07 0-2.35-1.833-4.07-4.306-4.07-2.485 0-4.306 1.731-4.306 4.07 0 2.338 1.821 4.07 4.306 4.07zm0-1.552c-1.406 0-2.462-1.023-2.462-2.518 0-1.495 1.056-2.519 2.462-2.519 1.405 0 2.462 1.024 2.462 2.519s-1.057 2.518-2.462 2.518z" fill="#007D64"/></g><defs><clipPath id="clip0_55_186"><path fill="#fff" transform="translate(16 13)" d="M0 0h114v30.236H0z"/></clipPath></defs></svg>